<svg width="248" height="56" viewBox="0 0 248 56" fill="none" xmlns="http://www.w3.org/2000/svg">
<path d="M0.736 20.808C0.736 25.608 4.096 29.48 8.896 29.48C11.136 29.48 13.056 28.488 14.272 27.144H14.336V29H19.936V12.584H14.272V14.152C12.928 12.84 11.104 12.104 8.896 12.104C4.096 12.104 0.736 16.008 0.736 20.808ZM6.752 20.808C6.752 18.536 8.448 16.936 10.592 16.936C12.704 16.936 14.4 18.536 14.4 20.808C14.4 23.048 12.8 24.648 10.592 24.648C8.288 24.648 6.752 23.048 6.752 20.808ZM24.5637 29H30.2277V19.72C30.2277 18.088 31.8917 16.52 33.5877 16.52C35.4117 16.52 36.5317 18.088 36.5317 19.72V29H42.1957V18.184C42.1957 13.608 38.0037 12.104 34.9957 12.104C33.2037 12.104 31.5717 13.032 30.2917 14.312H30.2277V12.584H24.5637V29ZM45.336 20.808C45.336 25.608 48.696 29.48 53.496 29.48C55.736 29.48 57.656 28.488 58.872 27.144H58.936V29H64.536V1.48H58.872V14.152C57.528 12.84 55.704 12.104 53.496 12.104C48.696 12.104 45.336 16.008 45.336 20.808ZM51.352 20.808C51.352 18.536 53.048 16.936 55.192 16.936C57.304 16.936 59 18.536 59 20.808C59 23.048 57.4 24.648 55.192 24.648C52.888 24.648 51.352 23.048 51.352 20.808ZM69.1638 29H74.8278V20.36C74.8278 19.944 75.2438 17.032 78.1878 17.032C80.0758 17.032 81.1318 17.928 81.1318 17.928L83.4998 13.128C83.4998 13.128 82.0278 12.104 79.9158 12.104C76.6838 12.104 74.8918 14.952 74.8918 14.952H74.8278V12.584H69.1638V29ZM102.322 21.576C102.354 21.384 102.354 21.032 102.354 20.808C102.354 15.048 98.5457 12.104 93.5537 12.104C88.5937 12.104 84.5297 16.008 84.5297 20.808C84.5297 25.576 88.5937 29.48 93.5537 29.48C97.2017 29.48 100.21 28.296 102.066 25.192L97.9697 23.144C96.5937 24.616 95.7937 24.968 93.9697 24.968C92.5297 24.968 90.4177 24.104 90.4177 21.576H102.322ZM90.5777 18.44C90.6737 16.936 91.7617 15.784 93.7137 15.784C95.3777 15.784 96.5617 16.712 96.8177 18.44H90.5777ZM124.547 12.584H117.187L111.459 18.312V1.48H105.795V29H111.459V22.44L118.019 29H125.315L116.739 20.424L124.547 12.584ZM125.286 20.808C125.286 25.608 128.646 29.48 133.446 29.48C135.686 29.48 137.606 28.488 138.822 27.144H138.886V29H144.486V12.584H138.822V14.152C137.478 12.84 135.654 12.104 133.446 12.104C128.646 12.104 125.286 16.008 125.286 20.808ZM131.302 20.808C131.302 18.536 132.998 16.936 135.142 16.936C137.254 16.936 138.95 18.536 138.95 20.808C138.95 23.048 137.35 24.648 135.142 24.648C132.838 24.648 131.302 23.048 131.302 20.808ZM161.576 2.44C159.72 2.44 158.216 3.944 158.216 5.8C158.216 7.656 159.72 9.16 161.576 9.16C163.432 9.16 164.936 7.656 164.936 5.8C164.936 3.944 163.432 2.44 161.576 2.44ZM158.664 12.584H164.328V31.528C164.328 34.44 162.92 37.8 158.408 37.8C155.72 37.8 154.696 37.128 153.896 36.776L155.656 32.2C155.656 32.2 156.392 32.68 157.096 32.68C158.056 32.68 158.664 31.976 158.664 30.44V12.584ZM167.78 20.808C167.78 25.608 171.14 29.48 175.94 29.48C178.18 29.48 180.1 28.488 181.316 27.144H181.38V29H186.98V12.584H181.316V14.152C179.972 12.84 178.148 12.104 175.94 12.104C171.14 12.104 167.78 16.008 167.78 20.808ZM173.796 20.808C173.796 18.536 175.492 16.936 177.636 16.936C179.748 16.936 181.444 18.536 181.444 20.808C181.444 23.048 179.844 24.648 177.636 24.648C175.332 24.648 173.796 23.048 173.796 20.808ZM198.619 12.104C194.299 12.104 191.451 14.024 191.451 17.384C191.451 19.848 193.115 21 194.779 21.864C196.635 22.824 198.427 22.92 198.427 24.104C198.427 25.192 197.467 25.288 196.667 25.288C194.843 25.288 192.603 23.4 192.603 23.4L190.299 27.272C190.299 27.272 192.667 29.48 196.635 29.48C199.995 29.48 204.411 28.712 204.411 23.88C204.411 20.52 201.595 19.304 199.419 18.632C198.01 18.184 196.859 17.928 196.859 17.064C196.859 16.296 197.371 16.072 198.619 16.072C200.347 16.072 202.267 17.096 202.267 17.096L204.123 13.384C204.123 13.384 201.787 12.104 198.619 12.104ZM224.641 21.576C224.673 21.384 224.673 21.032 224.673 20.808C224.673 15.048 220.865 12.104 215.873 12.104C210.913 12.104 206.849 16.008 206.849 20.808C206.849 25.576 210.913 29.48 215.873 29.48C219.521 29.48 222.529 28.296 224.385 25.192L220.289 23.144C218.913 24.616 218.113 24.968 216.289 24.968C214.849 24.968 212.737 24.104 212.737 21.576H224.641ZM212.897 18.44C212.993 16.936 214.081 15.784 216.033 15.784C217.697 15.784 218.881 16.712 219.137 18.44H212.897ZM246.866 12.584H239.506L233.778 18.312V1.48H228.114V29H233.778V22.44L240.338 29H247.634L239.058 20.424L246.866 12.584Z" fill="#535756"/>
<path d="M19.18 52V46.22L16.61 50.71H16.17L13.59 46.22V52H12.89V44.9H13.61L16.38 49.76L19.17 44.9H19.88V52H19.18ZM27.5495 52.05C26.9895 52.05 26.5162 51.95 26.1295 51.75C25.7495 51.55 25.4429 51.28 25.2095 50.94C24.9762 50.6 24.8095 50.22 24.7095 49.8C24.6095 49.3733 24.5595 48.9333 24.5595 48.48V44.9H25.2495V48.48C25.2495 48.8533 25.2862 49.2167 25.3595 49.57C25.4395 49.9167 25.5662 50.23 25.7395 50.51C25.9129 50.79 26.1462 51.0133 26.4395 51.18C26.7329 51.34 27.0995 51.42 27.5395 51.42C27.9929 51.42 28.3662 51.3367 28.6595 51.17C28.9595 51.0033 29.1962 50.78 29.3695 50.5C29.5429 50.2133 29.6629 49.8967 29.7295 49.55C29.8029 49.1967 29.8395 48.84 29.8395 48.48V44.9H30.5395V48.48C30.5395 48.9533 30.4862 49.4067 30.3795 49.84C30.2729 50.2667 30.0995 50.6467 29.8595 50.98C29.6262 51.3133 29.3195 51.5767 28.9395 51.77C28.5595 51.9567 28.0962 52.05 27.5495 52.05ZM39.3584 46.23C39.1584 46.01 38.8917 45.83 38.5584 45.69C38.225 45.5433 37.845 45.47 37.4184 45.47C36.7917 45.47 36.335 45.59 36.0484 45.83C35.7617 46.0633 35.6184 46.3833 35.6184 46.79C35.6184 47.07 35.6884 47.29 35.8284 47.45C35.9684 47.61 36.1817 47.7433 36.4684 47.85C36.7617 47.95 37.135 48.05 37.5884 48.15C38.095 48.2567 38.5317 48.3833 38.8984 48.53C39.265 48.6767 39.5484 48.8767 39.7484 49.13C39.9484 49.3767 40.0484 49.7133 40.0484 50.14C40.0484 50.5733 39.9384 50.9333 39.7184 51.22C39.4984 51.5067 39.195 51.72 38.8084 51.86C38.4217 51.9933 37.9817 52.06 37.4884 52.06C36.3817 52.06 35.4317 51.7167 34.6384 51.03L34.9884 50.46C35.2417 50.7267 35.5884 50.9567 36.0284 51.15C36.475 51.3433 36.9684 51.44 37.5084 51.44C38.0684 51.44 38.5084 51.3367 38.8284 51.13C39.1484 50.9233 39.3084 50.6167 39.3084 50.21C39.3084 49.9167 39.2284 49.6833 39.0684 49.51C38.9084 49.33 38.6684 49.1833 38.3484 49.07C38.0284 48.9567 37.635 48.8467 37.1684 48.74C36.675 48.6267 36.2584 48.5 35.9184 48.36C35.585 48.22 35.3317 48.0367 35.1584 47.81C34.985 47.5833 34.8984 47.2767 34.8984 46.89C34.8984 46.45 35.005 46.08 35.2184 45.78C35.4384 45.4733 35.7384 45.2433 36.1184 45.09C36.4984 44.93 36.935 44.85 37.4284 44.85C37.895 44.85 38.315 44.9233 38.6884 45.07C39.0617 45.21 39.3984 45.41 39.6984 45.67L39.3584 46.23ZM44.2826 52V44.9H44.9826V52H44.2826ZM49.293 48.4C49.293 47.9733 49.3664 47.55 49.513 47.13C49.6664 46.71 49.8864 46.33 50.173 45.99C50.4597 45.6433 50.813 45.37 51.233 45.17C51.653 44.9633 52.1297 44.86 52.663 44.86C53.2897 44.86 53.8297 45.0067 54.283 45.3C54.7364 45.5867 55.0697 45.9567 55.283 46.41L54.733 46.75C54.5797 46.4367 54.3864 46.19 54.153 46.01C53.9197 45.8233 53.6697 45.69 53.403 45.61C53.143 45.53 52.883 45.49 52.623 45.49C52.1964 45.49 51.8197 45.5767 51.493 45.75C51.1664 45.9167 50.8897 46.1433 50.663 46.43C50.443 46.7167 50.2764 47.0333 50.163 47.38C50.0497 47.7267 49.993 48.08 49.993 48.44C49.993 48.8333 50.0597 49.21 50.193 49.57C50.3264 49.9233 50.513 50.24 50.753 50.52C50.993 50.8 51.273 51.0233 51.593 51.19C51.9197 51.35 52.273 51.43 52.653 51.43C52.9197 51.43 53.193 51.3833 53.473 51.29C53.753 51.1967 54.013 51.0533 54.253 50.86C54.493 50.6667 54.6897 50.4167 54.843 50.11L55.423 50.41C55.2697 50.7633 55.0397 51.0633 54.733 51.31C54.433 51.5567 54.093 51.7433 53.713 51.87C53.3397 51.9967 52.973 52.06 52.613 52.06C52.1264 52.06 51.6797 51.9567 51.273 51.75C50.8664 51.5367 50.513 51.2567 50.213 50.91C49.9197 50.5567 49.693 50.1633 49.533 49.73C49.373 49.29 49.293 48.8467 49.293 48.4ZM65.1673 52V44.9H65.8673V52H65.1673ZM71.3478 46.19V52H70.6478V44.9H71.2278L75.8878 50.82V44.91H76.5878V52H75.9378L71.3478 46.19ZM81.3724 52V44.9H83.7824C84.5358 44.9 85.1624 45.06 85.6624 45.38C86.1691 45.6933 86.5491 46.12 86.8024 46.66C87.0558 47.1933 87.1824 47.7867 87.1824 48.44C87.1824 49.16 87.0424 49.7867 86.7624 50.32C86.4824 50.8533 86.0891 51.2667 85.5824 51.56C85.0758 51.8533 84.4758 52 83.7824 52H81.3724ZM86.4824 48.44C86.4824 47.8733 86.3758 47.37 86.1624 46.93C85.9558 46.49 85.6491 46.1467 85.2424 45.9C84.8424 45.6467 84.3558 45.52 83.7824 45.52H82.0724V51.38H83.7824C84.3691 51.38 84.8624 51.25 85.2624 50.99C85.6624 50.73 85.9658 50.38 86.1724 49.94C86.3791 49.5 86.4824 49 86.4824 48.44ZM94.4109 52.05C93.8509 52.05 93.3775 51.95 92.9909 51.75C92.6109 51.55 92.3042 51.28 92.0709 50.94C91.8375 50.6 91.6709 50.22 91.5709 49.8C91.4709 49.3733 91.4209 48.9333 91.4209 48.48V44.9H92.1109V48.48C92.1109 48.8533 92.1475 49.2167 92.2209 49.57C92.3009 49.9167 92.4275 50.23 92.6009 50.51C92.7742 50.79 93.0075 51.0133 93.3009 51.18C93.5942 51.34 93.9609 51.42 94.4009 51.42C94.8542 51.42 95.2275 51.3367 95.5209 51.17C95.8209 51.0033 96.0575 50.78 96.2309 50.5C96.4042 50.2133 96.5242 49.8967 96.5909 49.55C96.6642 49.1967 96.7009 48.84 96.7009 48.48V44.9H97.4009V48.48C97.4009 48.9533 97.3475 49.4067 97.2409 49.84C97.1342 50.2667 96.9609 50.6467 96.7209 50.98C96.4875 51.3133 96.1809 51.5767 95.8009 51.77C95.4209 51.9567 94.9575 52.05 94.4109 52.05ZM106.22 46.23C106.02 46.01 105.753 45.83 105.42 45.69C105.086 45.5433 104.706 45.47 104.28 45.47C103.653 45.47 103.196 45.59 102.91 45.83C102.623 46.0633 102.48 46.3833 102.48 46.79C102.48 47.07 102.55 47.29 102.69 47.45C102.83 47.61 103.043 47.7433 103.33 47.85C103.623 47.95 103.996 48.05 104.45 48.15C104.956 48.2567 105.393 48.3833 105.76 48.53C106.126 48.6767 106.41 48.8767 106.61 49.13C106.81 49.3767 106.91 49.7133 106.91 50.14C106.91 50.5733 106.8 50.9333 106.58 51.22C106.36 51.5067 106.056 51.72 105.67 51.86C105.283 51.9933 104.843 52.06 104.35 52.06C103.243 52.06 102.293 51.7167 101.5 51.03L101.85 50.46C102.103 50.7267 102.45 50.9567 102.89 51.15C103.336 51.3433 103.83 51.44 104.37 51.44C104.93 51.44 105.37 51.3367 105.69 51.13C106.01 50.9233 106.17 50.6167 106.17 50.21C106.17 49.9167 106.09 49.6833 105.93 49.51C105.77 49.33 105.53 49.1833 105.21 49.07C104.89 48.9567 104.496 48.8467 104.03 48.74C103.536 48.6267 103.12 48.5 102.78 48.36C102.446 48.22 102.193 48.0367 102.02 47.81C101.846 47.5833 101.76 47.2767 101.76 46.89C101.76 46.45 101.866 46.08 102.08 45.78C102.3 45.4733 102.6 45.2433 102.98 45.09C103.36 44.93 103.796 44.85 104.29 44.85C104.756 44.85 105.176 44.9233 105.55 45.07C105.923 45.21 106.26 45.41 106.56 45.67L106.22 46.23ZM116.174 45.52H113.644V52H112.944V45.52H110.414V44.9H116.174V45.52ZM120.238 52V44.9H123.238C123.544 44.9 123.824 44.9633 124.078 45.09C124.338 45.2167 124.561 45.39 124.748 45.61C124.934 45.8233 125.078 46.0633 125.178 46.33C125.284 46.59 125.338 46.8567 125.338 47.13C125.338 47.4767 125.271 47.8 125.138 48.1C125.011 48.4 124.828 48.6533 124.588 48.86C124.348 49.0667 124.071 49.2 123.758 49.26L125.498 52H124.708L123.038 49.38H120.938V52H120.238ZM120.938 48.76H123.258C123.538 48.76 123.781 48.6833 123.988 48.53C124.194 48.37 124.354 48.1667 124.468 47.92C124.581 47.6733 124.638 47.41 124.638 47.13C124.638 46.8433 124.571 46.58 124.438 46.34C124.311 46.0933 124.138 45.8967 123.918 45.75C123.698 45.5967 123.458 45.52 123.198 45.52H120.938V48.76ZM129.518 44.9L131.838 48.72L134.178 44.9H134.938L132.188 49.36V52H131.488V49.34L128.748 44.9H129.518ZM143.709 48.4C143.709 47.9733 143.782 47.55 143.929 47.13C144.082 46.71 144.302 46.33 144.589 45.99C144.876 45.6433 145.229 45.37 145.649 45.17C146.069 44.9633 146.546 44.86 147.079 44.86C147.706 44.86 148.246 45.0067 148.699 45.3C149.152 45.5867 149.486 45.9567 149.699 46.41L149.149 46.75C148.996 46.4367 148.802 46.19 148.569 46.01C148.336 45.8233 148.086 45.69 147.819 45.61C147.559 45.53 147.299 45.49 147.039 45.49C146.612 45.49 146.236 45.5767 145.909 45.75C145.582 45.9167 145.306 46.1433 145.079 46.43C144.859 46.7167 144.692 47.0333 144.579 47.38C144.466 47.7267 144.409 48.08 144.409 48.44C144.409 48.8333 144.476 49.21 144.609 49.57C144.742 49.9233 144.929 50.24 145.169 50.52C145.409 50.8 145.689 51.0233 146.009 51.19C146.336 51.35 146.689 51.43 147.069 51.43C147.336 51.43 147.609 51.3833 147.889 51.29C148.169 51.1967 148.429 51.0533 148.669 50.86C148.909 50.6667 149.106 50.4167 149.259 50.11L149.839 50.41C149.686 50.7633 149.456 51.0633 149.149 51.31C148.849 51.5567 148.509 51.7433 148.129 51.87C147.756 51.9967 147.389 52.06 147.029 52.06C146.542 52.06 146.096 51.9567 145.689 51.75C145.282 51.5367 144.929 51.2567 144.629 50.91C144.336 50.5567 144.109 50.1633 143.949 49.73C143.789 49.29 143.709 48.8467 143.709 48.4ZM156.816 52.05C156.316 52.05 155.863 51.95 155.456 51.75C155.05 51.5433 154.7 51.27 154.406 50.93C154.113 50.59 153.886 50.2067 153.726 49.78C153.566 49.3467 153.486 48.9033 153.486 48.45C153.486 47.9767 153.57 47.5267 153.736 47.1C153.903 46.6667 154.136 46.2833 154.436 45.95C154.743 45.61 155.1 45.3433 155.506 45.15C155.913 44.95 156.353 44.85 156.826 44.85C157.32 44.85 157.77 44.9533 158.176 45.16C158.583 45.3667 158.933 45.6433 159.226 45.99C159.526 46.3367 159.753 46.7233 159.906 47.15C160.066 47.5767 160.146 48.0133 160.146 48.46C160.146 48.9333 160.063 49.3867 159.896 49.82C159.73 50.2467 159.496 50.63 159.196 50.97C158.896 51.3033 158.543 51.5667 158.136 51.76C157.73 51.9533 157.29 52.05 156.816 52.05ZM154.186 48.45C154.186 48.8367 154.25 49.2067 154.376 49.56C154.503 49.9133 154.683 50.23 154.916 50.51C155.15 50.79 155.426 51.0133 155.746 51.18C156.073 51.34 156.43 51.42 156.816 51.42C157.223 51.42 157.586 51.3367 157.906 51.17C158.233 50.9967 158.51 50.7667 158.736 50.48C158.97 50.1933 159.146 49.8767 159.266 49.53C159.386 49.1767 159.446 48.8167 159.446 48.45C159.446 48.0633 159.383 47.6933 159.256 47.34C159.13 46.9867 158.946 46.67 158.706 46.39C158.473 46.11 158.196 45.89 157.876 45.73C157.556 45.57 157.203 45.49 156.816 45.49C156.416 45.49 156.053 45.5733 155.726 45.74C155.406 45.9067 155.13 46.1333 154.896 46.42C154.67 46.7 154.493 47.0167 154.366 47.37C154.246 47.7233 154.186 48.0833 154.186 48.45ZM165.166 46.19V52H164.466V44.9H165.046L169.706 50.82V44.91H170.406V52H169.756L165.166 46.19ZM179.341 46.23C179.141 46.01 178.874 45.83 178.541 45.69C178.207 45.5433 177.827 45.47 177.401 45.47C176.774 45.47 176.317 45.59 176.031 45.83C175.744 46.0633 175.601 46.3833 175.601 46.79C175.601 47.07 175.671 47.29 175.811 47.45C175.951 47.61 176.164 47.7433 176.451 47.85C176.744 47.95 177.117 48.05 177.571 48.15C178.077 48.2567 178.514 48.3833 178.881 48.53C179.247 48.6767 179.531 48.8767 179.731 49.13C179.931 49.3767 180.031 49.7133 180.031 50.14C180.031 50.5733 179.921 50.9333 179.701 51.22C179.481 51.5067 179.177 51.72 178.791 51.86C178.404 51.9933 177.964 52.06 177.471 52.06C176.364 52.06 175.414 51.7167 174.621 51.03L174.971 50.46C175.224 50.7267 175.571 50.9567 176.011 51.15C176.457 51.3433 176.951 51.44 177.491 51.44C178.051 51.44 178.491 51.3367 178.811 51.13C179.131 50.9233 179.291 50.6167 179.291 50.21C179.291 49.9167 179.211 49.6833 179.051 49.51C178.891 49.33 178.651 49.1833 178.331 49.07C178.011 48.9567 177.617 48.8467 177.151 48.74C176.657 48.6267 176.241 48.5 175.901 48.36C175.567 48.22 175.314 48.0367 175.141 47.81C174.967 47.5833 174.881 47.2767 174.881 46.89C174.881 46.45 174.987 46.08 175.201 45.78C175.421 45.4733 175.721 45.2433 176.101 45.09C176.481 44.93 176.917 44.85 177.411 44.85C177.877 44.85 178.297 44.9233 178.671 45.07C179.044 45.21 179.381 45.41 179.681 45.67L179.341 46.23ZM187.155 52.05C186.595 52.05 186.122 51.95 185.735 51.75C185.355 51.55 185.048 51.28 184.815 50.94C184.582 50.6 184.415 50.22 184.315 49.8C184.215 49.3733 184.165 48.9333 184.165 48.48V44.9H184.855V48.48C184.855 48.8533 184.892 49.2167 184.965 49.57C185.045 49.9167 185.172 50.23 185.345 50.51C185.518 50.79 185.752 51.0133 186.045 51.18C186.338 51.34 186.705 51.42 187.145 51.42C187.598 51.42 187.972 51.3367 188.265 51.17C188.565 51.0033 188.802 50.78 188.975 50.5C189.148 50.2133 189.268 49.8967 189.335 49.55C189.408 49.1967 189.445 48.84 189.445 48.48V44.9H190.145V48.48C190.145 48.9533 190.092 49.4067 189.985 49.84C189.878 50.2667 189.705 50.6467 189.465 50.98C189.232 51.3133 188.925 51.5767 188.545 51.77C188.165 51.9567 187.702 52.05 187.155 52.05ZM194.814 52V44.9H195.514V51.38H199.614V52H194.814ZM207.561 45.52H205.031V52H204.331V45.52H201.801V44.9H207.561V45.52ZM211.624 52V44.9H212.324V52H211.624ZM217.805 46.19V52H217.105V44.9H217.685L222.345 50.82V44.91H223.045V52H222.395L217.805 46.19ZM230.679 52.05C230.199 52.05 229.756 51.95 229.349 51.75C228.949 51.5433 228.599 51.2667 228.299 50.92C227.999 50.5733 227.766 50.1867 227.599 49.76C227.439 49.3267 227.359 48.8867 227.359 48.44C227.359 47.9667 227.439 47.5167 227.599 47.09C227.766 46.6567 227.996 46.2733 228.289 45.94C228.583 45.6 228.929 45.3333 229.329 45.14C229.729 44.9467 230.166 44.85 230.639 44.85C231.339 44.85 231.909 44.9933 232.349 45.28C232.789 45.5667 233.123 45.94 233.349 46.4L232.809 46.76C232.583 46.32 232.279 45.9967 231.899 45.79C231.519 45.5833 231.096 45.48 230.629 45.48C230.236 45.48 229.879 45.5633 229.559 45.73C229.246 45.8967 228.976 46.12 228.749 46.4C228.529 46.68 228.359 46.9967 228.239 47.35C228.119 47.7033 228.059 48.07 228.059 48.45C228.059 48.85 228.126 49.23 228.259 49.59C228.393 49.9433 228.579 50.26 228.819 50.54C229.066 50.8133 229.349 51.03 229.669 51.19C229.996 51.3433 230.349 51.42 230.729 51.42C231.136 51.42 231.523 51.3233 231.889 51.13C232.263 50.9367 232.619 50.6367 232.959 50.23V49.05H231.379V48.51H233.549V52H232.959V50.96C232.306 51.6867 231.546 52.05 230.679 52.05Z" fill="#535756"/>
</svg>
