<svg width="164" height="164" viewBox="0 0 164 164" fill="none" xmlns="http://www.w3.org/2000/svg">
<g clip-path="url(#clip0_903_966)">
<path d="M158.143 81.9987H123C120.313 81.9987 117.971 83.8266 117.318 86.4324L107.555 125.482L93.6731 5.18211C93.2994 1.96881 90.3919 -0.332982 87.1786 0.0407539C84.6654 0.333153 82.6241 2.20561 82.1169 4.68414L63.5557 97.5203L52.509 57.0298C51.6631 53.9075 48.446 52.0625 45.324 52.9084C43.5459 53.3903 42.0983 54.6803 41.4157 56.3911L31.1776 81.9987H5.85725C2.62233 81.9987 0 84.6211 0 87.8557C0 91.0902 2.62233 93.7129 5.85725 93.7129H35.1428C37.5397 93.7139 39.6949 92.2543 40.5841 90.0287L45.8027 76.973L58.7764 124.539C59.4714 127.088 61.7865 128.856 64.4284 128.855H64.6275C67.3359 128.763 69.6278 126.825 70.1683 124.17L86.299 43.4878L99.6121 158.809C99.9343 161.622 102.222 163.802 105.048 163.987L105.428 163.999C108.114 163.995 110.454 162.165 111.104 159.559L127.574 93.7129H158.143C161.378 93.7129 164 91.0906 164 87.8557C164 84.6207 161.378 81.9987 158.143 81.9987Z" fill="#535756"/>
</g>
<defs>
<clipPath id="clip0_903_966">
<rect width="164" height="164" fill="white"/>
</clipPath>
</defs>
</svg>
