<svg width="164" height="164" viewBox="0 0 164 164" fill="none" xmlns="http://www.w3.org/2000/svg">
<path d="M158.395 11.1904H5.60547C2.51477 11.1904 0 13.7052 0 16.7959V36.5255C0 39.6316 4.80469 39.6316 4.80469 36.5255V16.7959C4.80469 16.3545 5.16376 15.9951 5.60547 15.9951H158.395C158.836 15.9951 159.195 16.3545 159.195 16.7959V133.947C159.195 134.388 158.836 134.747 158.395 134.747H127.609V129.749H151.771C153.098 129.749 154.173 128.673 154.173 127.346V102.189C154.173 99.0832 149.369 99.0832 149.369 102.189V124.944H127.609V114.285C127.687 114.292 127.766 114.298 127.84 114.305C129.834 114.48 132.314 114.698 134.033 112.977C135.749 111.257 135.532 108.774 135.358 106.779C135.17 104.637 135.372 104.051 137.018 102.683C141.255 99.1598 141.334 95.3871 137.018 91.799C135.372 90.43 135.171 89.8444 135.358 87.7028C135.828 82.3289 133.318 79.6953 127.84 80.1768C125.702 80.3645 125.121 80.1614 123.758 78.5153C120.24 74.268 116.465 74.1895 112.882 78.5153C111.518 80.1611 110.939 80.3651 108.801 80.1768C103.423 79.7043 100.802 82.2284 101.282 87.7028C101.469 89.8448 101.268 90.43 99.622 91.799C95.3846 95.3221 95.3061 99.0954 99.622 102.683C101.268 104.052 101.469 104.638 101.282 106.779C100.778 112.535 103.527 114.761 109.031 114.285V124.945H14.6316V25.7983H149.369V89.3768C149.369 92.4829 154.173 92.4829 154.173 89.3768V23.3959C154.173 22.0692 153.098 20.9936 151.771 20.9936H12.2292C10.9022 20.9936 9.82687 22.0692 9.82687 23.3959V127.346C9.82687 128.673 10.9022 129.749 12.2292 129.749H109.031V134.747H5.60547C5.16376 134.747 4.80469 134.388 4.80469 133.947V48.6971C4.80469 45.591 0 45.591 0 48.6971V133.947C0 137.037 2.51477 139.552 5.60547 139.552H109.031V150.427C109.373 152.401 110.511 153.127 112.446 152.605L118.32 149.873L124.193 152.605C125.646 153.281 127.609 152.212 127.609 150.427V139.552H158.395C161.485 139.552 164 137.037 164 133.947V16.7959C164 13.7049 161.485 11.1904 158.395 11.1904ZM108.379 109.518C105.974 109.73 105.858 109.601 106.068 107.198C106.391 103.509 105.542 101.356 102.693 98.9878C100.744 97.3667 100.744 97.1139 102.693 95.4928C105.542 93.1244 106.391 90.9719 106.068 87.2832C105.858 84.8793 105.974 84.7518 108.379 84.9622C112.069 85.2874 114.218 84.4324 116.581 81.5794C118.196 79.6306 118.443 79.6306 120.058 81.5794C122.421 84.4324 124.57 85.2861 128.26 84.9622C130.665 84.7505 130.781 84.8793 130.571 87.2829C130.248 90.9719 131.097 93.1241 133.946 95.4925C135.895 97.1136 135.896 97.367 133.945 98.9878C131.096 101.356 130.247 103.508 130.571 107.197C130.782 109.601 130.664 109.73 128.26 109.518C126.751 109.386 125.039 109.235 123.532 109.861C122.074 110.467 121.049 111.704 120.057 112.901C119.59 113.465 118.738 114.494 118.319 114.678C117.9 114.494 117.048 113.465 116.581 112.901C115.59 111.704 114.565 110.467 113.106 109.861C111.551 109.387 109.975 109.273 108.379 109.518ZM119.333 145.046C118.69 144.747 117.949 144.747 117.306 145.046L113.835 146.66V117.08C114.975 118.333 116.382 119.497 118.32 119.497C120.257 119.497 121.664 118.333 122.804 117.08V146.66L119.333 145.046Z" fill="#535756"/>
<path d="M31.1545 45.9077H113.97C117.076 45.9077 117.076 41.103 113.97 41.103H31.1545C28.0481 41.103 28.0481 45.9077 31.1545 45.9077Z" fill="#535756"/>
<path d="M135.248 58.1172C135.248 56.7905 134.173 55.7148 132.846 55.7148H31.1547C28.0487 55.7148 28.0487 60.5195 31.1547 60.5195H132.846C134.173 60.5195 135.248 59.4439 135.248 58.1172Z" fill="#535756"/>
<path d="M91.3332 72.729C91.3332 71.4023 90.2579 70.3267 88.9309 70.3267H31.1548C28.0487 70.3267 28.0487 75.1313 31.1548 75.1313H88.9309C90.2576 75.1313 91.3332 74.0557 91.3332 72.729Z" fill="#535756"/>
<path d="M59.7867 106.215C58.4769 106.217 57.1668 106.219 55.8571 106.22C53.3372 106.222 51.9499 105.55 51.4352 102.878C50.9653 100.439 47.4469 100.749 46.8022 102.878C46.5168 103.82 45.0753 106.519 43.8162 106.298C43.149 106.182 42.8575 105.152 42.6109 104.619C42.1307 103.582 41.7809 102.482 41.4814 101.38C40.2169 96.7249 39.9644 91.8642 39.1733 87.121C38.7146 84.3705 34.522 85.1482 34.4544 87.7597C34.2392 96.0786 32.8791 104.283 29.9175 112.081C28.8185 114.974 33.4615 116.225 34.5505 113.358C35.6924 110.352 36.5989 107.273 37.3023 104.149C37.6797 105.287 38.1297 106.404 38.679 107.49C40.082 110.263 42.9433 111.903 46.0049 110.67C47.0975 110.23 48.0943 109.46 48.9428 108.524C51.2157 111.145 54.5973 111.026 57.752 111.022C62.5077 111.016 67.2634 111.005 72.0194 110.992C75.1107 110.983 75.1165 106.179 72.0194 106.187C67.9418 106.199 63.8642 106.208 59.7867 106.215Z" fill="#535756"/>
<path d="M118.32 106.624C123.494 106.624 127.703 102.415 127.703 97.2406C127.703 92.0666 123.494 87.8574 118.32 87.8574C113.146 87.8574 108.937 92.067 108.937 97.2406C108.937 102.414 113.146 106.624 118.32 106.624ZM118.32 92.6621C120.844 92.6621 122.899 94.7163 122.899 97.2406C122.899 99.765 120.844 101.819 118.32 101.819C115.795 101.819 113.741 99.7654 113.741 97.2406C113.741 94.7159 115.795 92.6621 118.32 92.6621Z" fill="#535756"/>
</svg>
